<?xml version="1.0" encoding="utf-8"?>
<!-- Generator: Adobe Illustrator 23.0.1, SVG Export Plug-In . SVG Version: 6.00 Build 0)  -->
<svg version="1.1" id="Layer_1" xmlns="http://www.w3.org/2000/svg" xmlns:xlink="http://www.w3.org/1999/xlink" x="0px" y="0px"
	 viewBox="0 0 841.89 595.28" style="enable-background:new 0 0 841.89 595.28;" xml:space="preserve">
<style type="text/css">
	.st0{fill:#132A74;}
</style>
<g>
	<path class="st0" d="M423.78,284.71h-10.56c-0.18,0-0.33,0.15-0.33,0.33v2.34c0,0.18,0.15,0.33,0.33,0.33h2.1v10.89
		c0,0.18,0.15,0.33,0.33,0.33h7.9c1.59,0,2.77-0.52,3.49-1.53c0.63-0.89,0.7-1.88,0.7-2.26c0-0.18-0.15-0.33-0.33-0.33h-2.35
		c-0.16,0-0.29,0.11-0.32,0.26c-0.01,0.03-0.01,0.06-0.02,0.1c-0.06,0.31-0.14,0.77-1.16,0.77h-5.24v-8.24h5.46
		c1.93,0,3.74,0.74,5.1,2.09c1.36,1.34,2.1,3.12,2.1,5.02c0,1.9-0.74,3.68-2.1,5.03c-1.36,1.35-3.17,2.09-5.1,2.09h-8.12
		c-0.18,0-0.33,0.15-0.33,0.33v8.49h-2.1c-0.18,0-0.33,0.15-0.33,0.33v2.34c0,0.18,0.15,0.33,0.33,0.33h7.2
		c0.18,0,0.33-0.15,0.33-0.33v-2.34c0-0.18-0.15-0.33-0.33-0.33h-2.1v-5.83h5.45c5.62,0,10.19-4.53,10.19-10.1
		C433.98,289.25,429.41,284.71,423.78,284.71z"/>
	<path class="st0" d="M421.53,329.16c-16.73,0-30.33-13.61-30.33-30.34c0-16.72,13.61-30.34,30.33-30.34
		c16.73,0,30.34,13.61,30.34,30.34C451.86,315.55,438.26,329.16,421.53,329.16z M421.53,271.5c-15.07,0-27.32,12.26-27.32,27.32
		c0,15.07,12.26,27.33,27.32,27.33c15.07,0,27.33-12.26,27.33-27.33C448.85,283.76,436.6,271.5,421.53,271.5z"/>
</g>
</svg>
